<svg width="232" height="20" viewBox="0 0 232 20" fill="none" xmlns="http://www.w3.org/2000/svg">
<path d="M4 20V16H0V4H4V0H16V4H20V8H12V4H8V16H12V12H20V16H16V20H4ZM32 20V16H28V4H32V0H44V4H48V16H44V20H32ZM36 15.84H40V4.16H36V15.84ZM56 20V0H64V4H68V8H72V0H80V20H72V16H68V12H64V20H56ZM88 20V0H96V4H100V8H104V0H112V20H104V16H100V12H96V20H88ZM120 20V0H136V4H128V8H136V12H128V16H136V20H120ZM148 20V16H144V4H148V0H160V4H164V8H156V4H152V16H156V12H164V16H160V20H148ZM176 20V4H172V0H188V4H184V20H176ZM220 20V12H212V0H228V8H232V12H228V20H220Z" fill="#DBA600"/>
</svg>
